<svg width="52" height="54" viewBox="0 0 52 54" fill="none" xmlns="http://www.w3.org/2000/svg">
<path fill-rule="evenodd" clip-rule="evenodd" d="M22 0.125C23.0355 0.125 23.875 0.964466 23.875 2V2.625H26.0325C30.3638 2.625 33.875 6.13621 33.875 10.4675V22C33.875 30.6822 27.3182 37.833 18.8862 38.7708C19.1588 45.0875 24.3661 50.125 30.75 50.125C37.3084 50.125 42.625 44.8084 42.625 38.25V33.6162C39.7394 32.8 37.625 30.1469 37.625 27C37.625 23.203 40.703 20.125 44.5 20.125C48.297 20.125 51.375 23.203 51.375 27C51.375 30.1469 49.2606 32.8 46.375 33.6162V38.25C46.375 46.8794 39.3794 53.875 30.75 53.875C22.2956 53.875 15.4094 47.1603 15.1336 38.773C6.69205 37.8442 0.125 30.689 0.125 22V10.4675C0.125 6.13621 3.63621 2.625 7.96751 2.625H10.125V2C10.125 0.964466 10.9645 0.125 12 0.125C13.0355 0.125 13.875 0.964466 13.875 2V7C13.875 8.03553 13.0355 8.875 12 8.875C10.9645 8.875 10.125 8.03553 10.125 7V6.375H7.96751C5.70728 6.375 3.875 8.20728 3.875 10.4675V22C3.875 29.2487 9.75126 35.125 17 35.125C24.2487 35.125 30.125 29.2487 30.125 22V10.4675C30.125 8.20728 28.2927 6.375 26.0325 6.375H23.875V7C23.875 8.03553 23.0355 8.875 22 8.875C20.9645 8.875 20.125 8.03553 20.125 7V2C20.125 0.964466 20.9645 0.125 22 0.125ZM41.375 27C41.375 25.2741 42.7741 23.875 44.5 23.875C46.2259 23.875 47.625 25.2741 47.625 27C47.625 28.7259 46.2259 30.125 44.5 30.125C42.7741 30.125 41.375 28.7259 41.375 27Z" fill="#00A9BF"/>
</svg>
