<svg width="55" height="54" viewBox="0 0 55 54" fill="none" xmlns="http://www.w3.org/2000/svg">
<path d="M17.5641 37.4355C18.1866 36.6079 19.362 36.4416 20.1896 37.0641C22.223 38.5934 24.7523 39.5 27.5001 39.5C30.2479 39.5 32.7772 38.5934 34.8106 37.0641C35.6382 36.4416 36.8137 36.6079 37.4361 37.4355C38.0585 38.2631 37.8922 39.4386 37.0646 40.061C34.403 42.0628 31.0877 43.25 27.5001 43.25C23.9126 43.25 20.5972 42.0628 17.9356 40.061C17.108 39.4386 16.9417 38.2631 17.5641 37.4355Z" fill="#00A9BF"/>
<path d="M17.5 27C18.8807 27 20 25.8807 20 24.5C20 23.1193 18.8807 22 17.5 22C16.1193 22 15 23.1193 15 24.5C15 25.8807 16.1193 27 17.5 27Z" fill="#00A9BF"/>
<path d="M40 24.5C40 25.8807 38.8807 27 37.5 27C36.1193 27 35 25.8807 35 24.5C35 23.1193 36.1193 22 37.5 22C38.8807 22 40 23.1193 40 24.5Z" fill="#00A9BF"/>
<path fill-rule="evenodd" clip-rule="evenodd" d="M0.625 27C0.625 12.1573 12.6573 0.125 27.5 0.125C42.3427 0.125 54.375 12.1573 54.375 27C54.375 41.8427 42.3427 53.875 27.5 53.875C12.6573 53.875 0.625 41.8427 0.625 27ZM20.1719 5.06019C10.9922 8.12491 4.375 16.7897 4.375 27C4.375 39.7716 14.7284 50.125 27.5 50.125C40.2716 50.125 50.625 39.7716 50.625 27C50.625 14.2284 40.2716 3.875 27.5 3.875C26.2465 3.875 25.0162 3.97474 23.8168 4.16671C24.6699 7.12382 26.6055 8.75828 28.466 9.7033C29.5227 10.24 30.548 10.5463 31.3119 10.717C31.6913 10.8018 31.999 10.8515 32.2041 10.8795C32.3065 10.8934 32.3828 10.9019 32.4289 10.9065C32.452 10.9088 32.4675 10.9102 32.4749 10.9108L32.4791 10.9112C33.5089 10.9858 34.2851 11.8794 34.214 12.9103C34.1428 13.9433 33.2475 14.7231 32.2145 14.6518L32.3435 12.7813C32.2145 14.6518 32.2136 14.6518 32.2126 14.6517L32.2058 14.6512L32.1938 14.6503L32.1768 14.649L32.1599 14.6476C32.1329 14.6453 32.0974 14.6421 32.0537 14.6377C31.9663 14.6289 31.8463 14.6154 31.6979 14.5952C31.4013 14.5547 30.9888 14.4873 30.4941 14.3768C29.51 14.1568 28.172 13.76 26.7678 13.0467C24.1804 11.7325 21.3473 9.31956 20.1719 5.06019Z" fill="#00A9BF"/>
</svg>
